<?xml version="1.0" standalone="no"?>
<!DOCTYPE svg PUBLIC "-//W3C//DTD SVG 20010904//EN"
 "http://www.w3.org/TR/2001/REC-SVG-20010904/DTD/svg10.dtd">
<svg version="1.0" xmlns="http://www.w3.org/2000/svg"
 width="840.000000pt" height="840.000000pt" viewBox="0 0 840.000000 840.000000"
 preserveAspectRatio="xMidYMid meet">
<metadata>
Created by potrace 1.14, written by Peter Selinger 2001-2017
</metadata>
<g transform="translate(0.000000,840.000000) scale(0.100000,-0.100000)"
fill="#000000" stroke="none">
<path d="M292 6738 c156 -233 285 -427 287 -433 2 -5 8 -14 13 -20 13 -14 308
-458 308 -462 0 -2 5 -9 10 -16 21 -23 310 -461 310 -468 0 -4 3 -9 8 -11 8
-3 740 -1101 748 -1122 4 -11 -152 -257 -169 -264 -4 -2 -7 -10 -7 -18 0 -8
-4 -14 -10 -14 -5 0 -10 -4 -10 -9 0 -8 -143 -226 -167 -256 -5 -5 -20 -28
-33 -50 -13 -22 -28 -41 -32 -43 -4 -2 -8 -10 -8 -18 0 -8 -4 -14 -10 -14 -5
0 -10 -5 -10 -10 0 -10 -37 -67 -51 -80 -3 -3 -16 -23 -29 -45 -13 -22 -28
-44 -32 -50 -5 -5 -32 -46 -61 -90 -28 -44 -55 -81 -60 -83 -4 -2 -7 -10 -7
-17 0 -7 -3 -15 -7 -17 -10 -4 -43 -53 -62 -90 -8 -16 -18 -28 -21 -28 -4 0
-13 -13 -20 -30 -7 -16 -16 -30 -21 -30 -4 0 -11 -9 -14 -20 -3 -11 -12 -26
-18 -33 -21 -22 -57 -76 -57 -84 0 -4 -11 -21 -25 -37 -14 -16 -25 -33 -25
-37 0 -4 -6 -14 -13 -21 -7 -7 -30 -40 -51 -73 -20 -33 -45 -71 -55 -85 -10
-14 -36 -52 -57 -85 -21 -33 -41 -62 -44 -65 -3 -3 -21 -30 -40 -60 -19 -30
-40 -61 -47 -68 -6 -6 -15 -21 -18 -32 -3 -11 -10 -20 -15 -20 -5 0 -12 -9
-15 -20 -3 -11 -12 -26 -18 -32 -7 -7 -28 -38 -47 -68 -19 -30 -40 -61 -47
-68 -6 -6 -15 -21 -18 -32 -3 -11 -10 -20 -15 -20 -5 0 -12 -9 -15 -20 -3 -11
-12 -26 -18 -32 -7 -7 -28 -38 -47 -68 -19 -30 -40 -61 -47 -68 -7 -7 -13 -17
-13 -22 0 -5 -6 -15 -13 -22 -7 -7 -28 -38 -47 -68 -19 -30 -37 -57 -40 -60
-5 -5 -137 -203 -222 -332 l-38 -58 743 1 742 0 70 111 c39 60 75 115 80 122
25 29 55 76 55 86 0 5 5 10 10 10 6 0 10 6 10 14 0 8 3 16 8 18 4 2 23 28 42
58 19 30 37 57 40 60 3 3 30 43 60 90 30 47 57 87 60 90 15 14 50 71 50 80 0
5 5 10 10 10 6 0 10 7 10 15 0 8 5 15 10 15 6 0 10 4 10 10 0 5 6 18 14 27 19
24 440 655 445 668 2 6 7 12 10 15 8 6 224 331 230 345 2 6 7 12 10 15 12 9
111 162 111 170 0 5 3 10 8 12 7 3 364 534 371 552 2 6 7 13 10 16 10 8 71 98
71 104 0 3 6 14 14 23 8 10 45 63 81 118 l67 99 -23 43 c-13 23 -31 52 -41 65
-34 44 -148 218 -148 227 0 5 -4 11 -8 13 -11 4 -72 94 -72 106 0 6 -4 12 -8
14 -5 2 -26 30 -46 62 -21 33 -43 65 -49 72 -7 7 -25 35 -42 63 -16 28 -33 51
-37 51 -5 0 -8 4 -8 9 0 9 -50 88 -73 116 -4 6 -37 55 -73 110 -36 55 -72 109
-80 120 -8 11 -294 441 -637 955 l-623 935 -742 3 -742 2 282 -422z"/>
<path d="M1990 7155 c0 -2 205 -311 455 -686 250 -375 455 -685 455 -690 0 -4
3 -9 8 -11 7 -3 222 -322 231 -342 2 -5 9 -16 17 -25 26 -32 304 -454 304
-462 0 -4 4 -9 8 -11 10 -4 72 -96 72 -107 0 -5 7 -11 15 -15 8 -3 15 -10 15
-16 0 -10 55 -98 69 -110 3 -3 12 -17 20 -32 8 -16 18 -28 23 -28 4 0 8 -5 8
-12 0 -6 11 -26 25 -44 14 -18 25 -37 25 -43 0 -6 4 -11 10 -11 5 0 17 -16 26
-35 9 -19 20 -35 25 -35 5 0 9 -4 9 -10 0 -5 31 -56 70 -114 64 -95 83 -139
62 -148 -4 -1 -138 -199 -297 -438 -159 -239 -292 -437 -295 -440 -3 -3 -17
-23 -30 -45 -13 -22 -27 -42 -30 -45 -4 -3 -9 -10 -11 -15 -8 -19 -664 -1000
-671 -1003 -5 -2 -8 -10 -8 -18 0 -8 -4 -14 -10 -14 -5 0 -10 -4 -10 -9 0 -5
-19 -37 -43 -71 -23 -34 -46 -69 -52 -78 -13 -22 -107 -164 -118 -177 -4 -5
-45 -66 -90 -135 -45 -69 -85 -126 -89 -128 -5 -2 -8 -8 -8 -13 0 -11 -42 -72
-52 -77 -5 -2 -8 -10 -8 -18 0 -8 -4 -14 -10 -14 -5 0 -10 -4 -10 -9 0 -6 -25
-46 -55 -90 -30 -44 -55 -83 -55 -86 0 -3 333 -5 740 -5 696 0 741 1 747 18 4
9 9 19 12 22 13 10 131 192 131 200 0 4 4 10 8 12 10 4 152 218 152 228 0 5 3
10 8 12 4 2 115 165 247 363 131 198 243 365 247 370 5 6 74 109 154 230 80
121 151 228 159 238 8 9 15 22 15 27 0 6 5 10 10 10 6 0 10 5 10 10 0 6 15 33
34 61 l34 51 18 -31 c10 -17 22 -31 26 -31 4 0 8 -7 8 -15 0 -8 5 -15 10 -15
6 0 10 -4 10 -10 0 -5 29 -52 65 -105 36 -52 65 -99 65 -104 0 -5 4 -11 8 -13
4 -1 39 -50 77 -108 38 -58 71 -107 74 -110 4 -3 12 -17 20 -32 8 -16 18 -28
23 -28 4 0 8 -4 8 -9 0 -5 25 -45 55 -90 30 -45 55 -85 55 -90 0 -5 4 -11 8
-13 8 -3 312 -455 312 -464 0 -3 6 -12 13 -19 26 -30 37 -44 37 -49 0 -6 141
-217 150 -226 3 -3 30 -43 60 -90 29 -47 57 -86 62 -88 4 -2 8 -8 8 -13 0 -4
14 -29 32 -54 l32 -45 738 0 738 0 -18 29 c-24 41 -95 146 -142 212 -22 31
-40 61 -40 67 0 6 -3 12 -7 14 -11 4 -53 65 -53 76 0 5 -9 17 -20 27 -11 10
-20 24 -20 32 0 7 -4 13 -8 13 -5 0 -14 10 -21 23 -14 27 -25 45 -116 179 -38
56 -74 111 -80 120 -5 9 -37 56 -70 105 -33 48 -62 92 -64 98 -2 5 -8 14 -13
20 -23 27 -88 127 -88 135 0 4 -3 10 -7 12 -12 5 -73 95 -73 106 0 6 -3 12 -7
14 -11 4 -53 65 -53 76 0 5 -9 17 -20 27 -11 10 -20 24 -20 31 0 7 -3 14 -7
16 -11 4 -53 65 -53 76 0 5 -9 17 -20 27 -11 10 -20 24 -20 31 0 7 -3 14 -7
16 -11 4 -73 97 -73 107 0 5 -3 11 -7 13 -11 4 -73 97 -73 107 0 5 -3 11 -7
13 -11 5 -73 97 -73 108 0 6 -3 10 -7 10 -5 0 -21 23 -38 51 -16 27 -40 62
-52 77 -13 15 -23 32 -23 39 0 6 -3 13 -7 15 -11 4 -133 187 -133 198 0 4 -3
10 -7 12 -10 4 -153 217 -153 226 0 4 -11 19 -25 34 -14 15 -25 29 -25 32 0 4
-99 158 -117 181 -5 6 -30 44 -57 85 -28 41 -52 77 -55 80 -8 7 -29 41 -38 60
-4 8 -9 17 -13 20 -11 9 -265 395 -268 408 -2 6 -7 12 -11 12 -4 0 -20 23 -36
50 -16 28 -33 50 -37 50 -4 0 -8 4 -8 10 0 10 -100 161 -113 171 -5 3 -8 10
-8 15 0 5 -9 19 -19 32 -11 12 -20 24 -20 27 0 3 -16 28 -35 55 -19 27 -35 52
-35 55 0 3 -8 15 -18 26 -11 10 -25 32 -33 47 -8 15 -16 29 -19 32 -3 3 -32
46 -65 95 -33 50 -64 93 -68 96 -5 3 -8 10 -8 15 0 5 -9 19 -19 32 -11 12 -20
24 -20 26 0 3 -34 55 -75 116 -41 61 -75 115 -75 120 0 4 -4 10 -8 12 -5 2
-39 50 -77 108 -38 58 -72 107 -75 110 -4 3 -9 10 -11 16 -7 18 -263 399 -274
406 -5 4 -7 8 -3 8 7 0 -36 62 -72 107 -6 7 -10 14 -10 17 0 2 -47 75 -105
161 -58 86 -105 161 -105 165 0 5 -4 10 -8 12 -5 2 -46 60 -93 131 l-84 127
-737 0 c-406 0 -738 -2 -738 -5z"/>
<path d="M5137 5432 l-27 -3 32 -47 c18 -26 36 -48 41 -50 4 -2 7 -7 7 -12 0
-4 52 -84 115 -179 63 -94 115 -175 115 -180 0 -5 4 -11 9 -13 8 -3 46 -58 85
-122 10 -17 22 -32 27 -34 5 -2 9 -10 9 -18 0 -8 3 -14 8 -14 4 0 13 -12 20
-27 6 -16 21 -39 32 -53 11 -14 50 -70 86 -125 37 -55 70 -102 75 -105 4 -3
596 -5 1316 -4 l1308 0 3 492 c1 271 -1 492 -5 493 -22 3 -3232 4 -3256 1z"/>
<path d="M6110 3938 c0 -10 5 -18 10 -18 6 0 10 -6 10 -13 0 -7 9 -23 20 -35
11 -12 20 -25 20 -30 0 -5 9 -17 20 -27 11 -10 20 -22 20 -26 0 -8 75 -123 95
-145 6 -7 24 -33 40 -60 37 -59 37 -59 110 -169 33 -49 63 -94 68 -100 19 -23
97 -142 112 -172 10 -18 21 -33 26 -33 5 0 9 -6 10 -12 0 -7 20 -40 43 -72
l43 -60 819 0 819 0 3 492 c2 390 0 492 -10 493 -7 1 -523 2 -1145 3 -1073 1
-1133 0 -1133 -16z"/>
</g>
</svg>
